# xmcd CD database file
#
# Track frame offsets:
#	150
#	20462
#	37002
#	54691
#	69507
#	84685
#	97004
#	106857
#	117922
#	135556
#	150285
#	171088
#	181703
#	195000
#	210150
#	227003
#	243964
#	255095
#	276344
#	291616
#	303701
#	316744
#	333044
#
# Disc length: 4619 seconds
#
# Revision: 0
# Processed by: cddbd v1.5.1PL2 Copyright (c) Steve Scherf et al.
# Submitted via: CDex 1.51
#
DISCID=2e120917
DTITLE=Johnny Cash - American Series
DYEAR=1900
DGENRE=Country
TTITLE0=The man comes around
TTITLE1=Hurt
TTITLE2=I hung my head
TTITLE3=Desperado
TTITLE4=Personal Jesus
TTITLE5=Sam Hall
TTITLE6=I won't back down
TTITLE7=Solitary Man
TTITLE8=One
TTITLE9=Nobody
TTITLE10=The mercy seat
TTITLE11=Memories are made of this
TTITLE12=Before my time
TTITLE13=Wafarin' stranger
TTITLE14=I see a darkness
TTITLE15=Rowboat
TTITLE16=The one rose
TTITLE17=Southern accent
TTITLE18=Meet me in heaven
TTITLE19=I never picked cotton
TTITLE20=Unchained
TTITLE21=Streets of Laredo
TTITLE22=We'll meet again
EXTD=
EXTT0=
EXTT1=
EXTT2=
EXTT3=
EXTT4=
EXTT5=
EXTT6=
EXTT7=
EXTT8=
EXTT9=
EXTT10=
EXTT11=
EXTT12=
EXTT13=
EXTT14=
EXTT15=
EXTT16=
EXTT17=
EXTT18=
EXTT19=
EXTT20=
EXTT21=
EXTT22=
PLAYORDER=
